# xmcd CD database file
#
# Track frame offsets:
#	150
#	24425
#	44112
#	66200
#	90322
#	113332
#	141680
#
# Disc length: 2266 seconds
#
# Revision: 0
# Processed by: cddbd v1.5.1PL0 Copyright (c) Steve Scherf et al.
# Submitted via: CDex 1.51
#
DISCID=5c08d807
DTITLE=Lou Donaldson - Swing and Soul
DYEAR=1900
DGENRE=Jazz
TTITLE0=Dorothy
TTITLE1=I Won't Cry Any More
TTITLE2=Herman's Mambo
TTITLE3=Peck Time
TTITLE4=There Will Never Be Another You
TTITLE5=Groove Junction
TTITLE6=Grits And Gravy
EXTD=
EXTT0=
EXTT1=
EXTT2=
EXTT3=
EXTT4=
EXTT5=
EXTT6=
PLAYORDER=
